# xmcd
#
# Track frame offsets:
# 150
# 10727
# 22760
# 38117
# 56010
# 69455
# 84847
# 97812
# 117720
# 133267
# 143857
# 155897
# 171267
# 189147
# 202542
# 217930
# 230877
#
# Disc length: 3342 seconds
#
#
# Revision: 0
# Processed by: cddbd v1.5.1PL2 Copyright (c) Steve Scherf et al.
# Submitted via: FreeRIP 2.931 
#
DISCID=df0d0c11
DTITLE=Paulo André - Mudei de Vida
DYEAR=1999
DGENRE=Gospel
TTITLE0=Não Deixe o Altar sem Fogo
TTITLE1=Cristo Vive
TTITLE2=Filho da Irmã Maria
TTITLE3=Posso todas as Coisas
TTITLE4=Eita Lá
TTITLE5=Pare
TTITLE6=Deus te Livrará
TTITLE7=Mudei de Vida
TTITLE8=O Inimigo tá Perdido
TTITLE9=Play 1
TTITLE10=Play 2
TTITLE11=Play 3
TTITLE12=Play 4
TTITLE13=Play 5
TTITLE14=Play 6
TTITLE15=Play 7
TTITLE16=Play 8
EXTD=
EXTT0=
EXTT1=
EXTT2=
EXTT3=
EXTT4=
EXTT5=
EXTT6=
EXTT7=
EXTT8=
EXTT9=
EXTT10=
EXTT11=
EXTT12=
EXTT13=
EXTT14=
EXTT15=
EXTT16=
PLAYORDER=
